<mxfile host="app.diagrams.net" modified="2023-05-06T05:38:25.988Z" agent="Mozilla/5.0 (Windows NT 10.0; Win64; x64) AppleWebKit/537.36 (KHTML, like Gecko) Chrome/112.0.0.0 Safari/537.36" etag="xTl4s7yP_sJ3vGV1q8Le" version="21.2.9" type="device">
  <diagram name="Page-1" id="d_kaPR4QugwID4wRf2zA">
    <mxGraphModel dx="1909" dy="940" grid="1" gridSize="10" guides="1" tooltips="1" connect="1" arrows="1" fold="1" page="1" pageScale="1" pageWidth="827" pageHeight="1169" math="0" shadow="0">
      <root>
        <mxCell id="0" />
        <mxCell id="1" parent="0" />
        <mxCell id="aUoKUcC9t3b5W3S6GWxW-27" value="year table" style="swimlane;fontStyle=0;childLayout=stackLayout;horizontal=1;startSize=26;horizontalStack=0;resizeParent=1;resizeParentMax=0;resizeLast=0;collapsible=1;marginBottom=0;align=center;fontSize=14;" parent="1" vertex="1">
          <mxGeometry x="230" y="140" width="260" height="286" as="geometry" />
        </mxCell>
        <mxCell id="aUoKUcC9t3b5W3S6GWxW-28" value="year" style="text;strokeColor=none;fillColor=none;spacingLeft=4;spacingRight=4;overflow=hidden;rotatable=0;points=[[0,0.5],[1,0.5]];portConstraint=eastwest;fontSize=12;whiteSpace=wrap;html=1;" parent="aUoKUcC9t3b5W3S6GWxW-27" vertex="1">
          <mxGeometry y="26" width="260" height="30" as="geometry" />
        </mxCell>
        <mxCell id="aUoKUcC9t3b5W3S6GWxW-29" value="average age of laureates" style="text;strokeColor=none;fillColor=none;spacingLeft=4;spacingRight=4;overflow=hidden;rotatable=0;points=[[0,0.5],[1,0.5]];portConstraint=eastwest;fontSize=12;whiteSpace=wrap;html=1;" parent="aUoKUcC9t3b5W3S6GWxW-27" vertex="1">
          <mxGeometry y="56" width="260" height="30" as="geometry" />
        </mxCell>
        <mxCell id="aUoKUcC9t3b5W3S6GWxW-31" value="prizes won by women" style="text;strokeColor=none;fillColor=none;spacingLeft=4;spacingRight=4;overflow=hidden;rotatable=0;points=[[0,0.5],[1,0.5]];portConstraint=eastwest;fontSize=12;whiteSpace=wrap;html=1;" parent="aUoKUcC9t3b5W3S6GWxW-27" vertex="1">
          <mxGeometry y="86" width="260" height="30" as="geometry" />
        </mxCell>
        <mxCell id="aUoKUcC9t3b5W3S6GWxW-32" value="prizes won by men" style="text;strokeColor=none;fillColor=none;spacingLeft=4;spacingRight=4;overflow=hidden;rotatable=0;points=[[0,0.5],[1,0.5]];portConstraint=eastwest;fontSize=12;whiteSpace=wrap;html=1;" parent="aUoKUcC9t3b5W3S6GWxW-27" vertex="1">
          <mxGeometry y="116" width="260" height="30" as="geometry" />
        </mxCell>
        <mxCell id="aUoKUcC9t3b5W3S6GWxW-33" value="percentage of proces won by women" style="text;strokeColor=none;fillColor=none;spacingLeft=4;spacingRight=4;overflow=hidden;rotatable=0;points=[[0,0.5],[1,0.5]];portConstraint=eastwest;fontSize=12;whiteSpace=wrap;html=1;" parent="aUoKUcC9t3b5W3S6GWxW-27" vertex="1">
          <mxGeometry y="146" width="260" height="30" as="geometry" />
        </mxCell>
        <mxCell id="aUoKUcC9t3b5W3S6GWxW-34" value="precentage of prozes won by men" style="text;strokeColor=none;fillColor=none;spacingLeft=4;spacingRight=4;overflow=hidden;rotatable=0;points=[[0,0.5],[1,0.5]];portConstraint=eastwest;fontSize=12;whiteSpace=wrap;html=1;" parent="aUoKUcC9t3b5W3S6GWxW-27" vertex="1">
          <mxGeometry y="176" width="260" height="30" as="geometry" />
        </mxCell>
        <mxCell id="aUoKUcC9t3b5W3S6GWxW-35" value="remove average female winers 1901 2014" style="text;strokeColor=none;fillColor=none;spacingLeft=4;spacingRight=4;overflow=hidden;rotatable=0;points=[[0,0.5],[1,0.5]];portConstraint=eastwest;fontSize=12;whiteSpace=wrap;html=1;" parent="aUoKUcC9t3b5W3S6GWxW-27" vertex="1">
          <mxGeometry y="206" width="260" height="30" as="geometry" />
        </mxCell>
        <mxCell id="aUoKUcC9t3b5W3S6GWxW-30" value="&lt;span style=&quot;color: rgb(0, 0, 0); font-family: Helvetica; font-size: 12px; font-style: normal; font-variant-ligatures: normal; font-variant-caps: normal; font-weight: 400; letter-spacing: normal; orphans: 2; text-align: left; text-indent: 0px; text-transform: none; widows: 2; word-spacing: 0px; -webkit-text-stroke-width: 0px; background-color: rgb(251, 251, 251); text-decoration-thickness: initial; text-decoration-style: initial; text-decoration-color: initial; float: none; display: inline !important;&quot;&gt;remove average female 1901 2014 2&lt;/span&gt;&lt;br&gt;" style="text;strokeColor=none;fillColor=none;spacingLeft=4;spacingRight=4;overflow=hidden;rotatable=0;points=[[0,0.5],[1,0.5]];portConstraint=eastwest;fontSize=12;whiteSpace=wrap;html=1;" parent="aUoKUcC9t3b5W3S6GWxW-27" vertex="1">
          <mxGeometry y="236" width="260" height="50" as="geometry" />
        </mxCell>
        <mxCell id="aUoKUcC9t3b5W3S6GWxW-36" value="country table" style="swimlane;fontStyle=0;childLayout=stackLayout;horizontal=1;startSize=26;horizontalStack=0;resizeParent=1;resizeParentMax=0;resizeLast=0;collapsible=1;marginBottom=0;align=center;fontSize=14;" parent="1" vertex="1">
          <mxGeometry x="900" y="120" width="300" height="296" as="geometry" />
        </mxCell>
        <mxCell id="aUoKUcC9t3b5W3S6GWxW-37" value="country name" style="text;strokeColor=none;fillColor=none;spacingLeft=4;spacingRight=4;overflow=hidden;rotatable=0;points=[[0,0.5],[1,0.5]];portConstraint=eastwest;fontSize=12;whiteSpace=wrap;html=1;" parent="aUoKUcC9t3b5W3S6GWxW-36" vertex="1">
          <mxGeometry y="26" width="300" height="30" as="geometry" />
        </mxCell>
        <mxCell id="aUoKUcC9t3b5W3S6GWxW-38" value="number of prizes" style="text;strokeColor=none;fillColor=none;spacingLeft=4;spacingRight=4;overflow=hidden;rotatable=0;points=[[0,0.5],[1,0.5]];portConstraint=eastwest;fontSize=12;whiteSpace=wrap;html=1;" parent="aUoKUcC9t3b5W3S6GWxW-36" vertex="1">
          <mxGeometry y="56" width="300" height="30" as="geometry" />
        </mxCell>
        <mxCell id="aUoKUcC9t3b5W3S6GWxW-42" value="average age of laureates" style="text;strokeColor=none;fillColor=none;spacingLeft=4;spacingRight=4;overflow=hidden;rotatable=0;points=[[0,0.5],[1,0.5]];portConstraint=eastwest;fontSize=12;whiteSpace=wrap;html=1;" parent="aUoKUcC9t3b5W3S6GWxW-36" vertex="1">
          <mxGeometry y="86" width="300" height="30" as="geometry" />
        </mxCell>
        <mxCell id="aUoKUcC9t3b5W3S6GWxW-44" value="prize won by women" style="text;strokeColor=none;fillColor=none;spacingLeft=4;spacingRight=4;overflow=hidden;rotatable=0;points=[[0,0.5],[1,0.5]];portConstraint=eastwest;fontSize=12;whiteSpace=wrap;html=1;" parent="aUoKUcC9t3b5W3S6GWxW-36" vertex="1">
          <mxGeometry y="116" width="300" height="30" as="geometry" />
        </mxCell>
        <mxCell id="aUoKUcC9t3b5W3S6GWxW-46" value="prize won by men" style="text;strokeColor=none;fillColor=none;spacingLeft=4;spacingRight=4;overflow=hidden;rotatable=0;points=[[0,0.5],[1,0.5]];portConstraint=eastwest;fontSize=12;whiteSpace=wrap;html=1;" parent="aUoKUcC9t3b5W3S6GWxW-36" vertex="1">
          <mxGeometry y="146" width="300" height="30" as="geometry" />
        </mxCell>
        <mxCell id="aUoKUcC9t3b5W3S6GWxW-45" value="percentage of prize won by women" style="text;strokeColor=none;fillColor=none;spacingLeft=4;spacingRight=4;overflow=hidden;rotatable=0;points=[[0,0.5],[1,0.5]];portConstraint=eastwest;fontSize=12;whiteSpace=wrap;html=1;" parent="aUoKUcC9t3b5W3S6GWxW-36" vertex="1">
          <mxGeometry y="176" width="300" height="30" as="geometry" />
        </mxCell>
        <mxCell id="aUoKUcC9t3b5W3S6GWxW-41" value="percentage of prize won by men" style="text;strokeColor=none;fillColor=none;spacingLeft=4;spacingRight=4;overflow=hidden;rotatable=0;points=[[0,0.5],[1,0.5]];portConstraint=eastwest;fontSize=12;whiteSpace=wrap;html=1;" parent="aUoKUcC9t3b5W3S6GWxW-36" vertex="1">
          <mxGeometry y="206" width="300" height="30" as="geometry" />
        </mxCell>
        <mxCell id="aUoKUcC9t3b5W3S6GWxW-40" value="remove average female winners all countries" style="text;strokeColor=none;fillColor=none;spacingLeft=4;spacingRight=4;overflow=hidden;rotatable=0;points=[[0,0.5],[1,0.5]];portConstraint=eastwest;fontSize=12;whiteSpace=wrap;html=1;" parent="aUoKUcC9t3b5W3S6GWxW-36" vertex="1">
          <mxGeometry y="236" width="300" height="30" as="geometry" />
        </mxCell>
        <mxCell id="aUoKUcC9t3b5W3S6GWxW-43" value="remove&amp;nbsp; average female winners all countries 2" style="text;strokeColor=none;fillColor=none;spacingLeft=4;spacingRight=4;overflow=hidden;rotatable=0;points=[[0,0.5],[1,0.5]];portConstraint=eastwest;fontSize=12;whiteSpace=wrap;html=1;" parent="aUoKUcC9t3b5W3S6GWxW-36" vertex="1">
          <mxGeometry y="266" width="300" height="30" as="geometry" />
        </mxCell>
        <mxCell id="aUoKUcC9t3b5W3S6GWxW-47" value="winner table" style="swimlane;fontStyle=0;childLayout=stackLayout;horizontal=1;startSize=26;horizontalStack=0;resizeParent=1;resizeParentMax=0;resizeLast=0;collapsible=1;marginBottom=0;align=center;fontSize=14;" parent="1" vertex="1">
          <mxGeometry x="900" y="560" width="320" height="424" as="geometry" />
        </mxCell>
        <mxCell id="aUoKUcC9t3b5W3S6GWxW-48" value="winner name" style="text;strokeColor=none;fillColor=none;spacingLeft=4;spacingRight=4;overflow=hidden;rotatable=0;points=[[0,0.5],[1,0.5]];portConstraint=eastwest;fontSize=12;whiteSpace=wrap;html=1;" parent="aUoKUcC9t3b5W3S6GWxW-47" vertex="1">
          <mxGeometry y="26" width="320" height="26" as="geometry" />
        </mxCell>
        <mxCell id="aUoKUcC9t3b5W3S6GWxW-49" value="year and catagory won" style="text;strokeColor=none;fillColor=none;spacingLeft=4;spacingRight=4;overflow=hidden;rotatable=0;points=[[0,0.5],[1,0.5]];portConstraint=eastwest;fontSize=12;whiteSpace=wrap;html=1;" parent="aUoKUcC9t3b5W3S6GWxW-47" vertex="1">
          <mxGeometry y="52" width="320" height="30" as="geometry" />
        </mxCell>
        <mxCell id="aUoKUcC9t3b5W3S6GWxW-61" value="known for" style="text;strokeColor=none;fillColor=none;spacingLeft=4;spacingRight=4;overflow=hidden;rotatable=0;points=[[0,0.5],[1,0.5]];portConstraint=eastwest;fontSize=12;whiteSpace=wrap;html=1;" parent="aUoKUcC9t3b5W3S6GWxW-47" vertex="1">
          <mxGeometry y="82" width="320" height="26" as="geometry" />
        </mxCell>
        <mxCell id="aUoKUcC9t3b5W3S6GWxW-59" value="filed" style="text;strokeColor=none;fillColor=none;spacingLeft=4;spacingRight=4;overflow=hidden;rotatable=0;points=[[0,0.5],[1,0.5]];portConstraint=eastwest;fontSize=12;whiteSpace=wrap;html=1;" parent="aUoKUcC9t3b5W3S6GWxW-47" vertex="1">
          <mxGeometry y="108" width="320" height="26" as="geometry" />
        </mxCell>
        <mxCell id="aUoKUcC9t3b5W3S6GWxW-57" value="gender" style="text;strokeColor=none;fillColor=none;spacingLeft=4;spacingRight=4;overflow=hidden;rotatable=0;points=[[0,0.5],[1,0.5]];portConstraint=eastwest;fontSize=12;whiteSpace=wrap;html=1;" parent="aUoKUcC9t3b5W3S6GWxW-47" vertex="1">
          <mxGeometry y="134" width="320" height="26" as="geometry" />
        </mxCell>
        <mxCell id="aUoKUcC9t3b5W3S6GWxW-56" value="place of birth" style="text;strokeColor=none;fillColor=none;spacingLeft=4;spacingRight=4;overflow=hidden;rotatable=0;points=[[0,0.5],[1,0.5]];portConstraint=eastwest;fontSize=12;whiteSpace=wrap;html=1;" parent="aUoKUcC9t3b5W3S6GWxW-47" vertex="1">
          <mxGeometry y="160" width="320" height="26" as="geometry" />
        </mxCell>
        <mxCell id="aUoKUcC9t3b5W3S6GWxW-51" value="country of birth" style="text;strokeColor=none;fillColor=none;spacingLeft=4;spacingRight=4;overflow=hidden;rotatable=0;points=[[0,0.5],[1,0.5]];portConstraint=eastwest;fontSize=12;whiteSpace=wrap;html=1;" parent="aUoKUcC9t3b5W3S6GWxW-47" vertex="1">
          <mxGeometry y="186" width="320" height="26" as="geometry" />
        </mxCell>
        <mxCell id="aUoKUcC9t3b5W3S6GWxW-52" value="short discription" style="text;strokeColor=none;fillColor=none;spacingLeft=4;spacingRight=4;overflow=hidden;rotatable=0;points=[[0,0.5],[1,0.5]];portConstraint=eastwest;fontSize=12;whiteSpace=wrap;html=1;" parent="aUoKUcC9t3b5W3S6GWxW-47" vertex="1">
          <mxGeometry y="212" width="320" height="26" as="geometry" />
        </mxCell>
        <mxCell id="aUoKUcC9t3b5W3S6GWxW-50" value="discrtption" style="text;strokeColor=none;fillColor=none;spacingLeft=4;spacingRight=4;overflow=hidden;rotatable=0;points=[[0,0.5],[1,0.5]];portConstraint=eastwest;fontSize=12;whiteSpace=wrap;html=1;" parent="aUoKUcC9t3b5W3S6GWxW-47" vertex="1">
          <mxGeometry y="238" width="320" height="30" as="geometry" />
        </mxCell>
        <mxCell id="aUoKUcC9t3b5W3S6GWxW-63" value="year of birth" style="text;strokeColor=none;fillColor=none;spacingLeft=4;spacingRight=4;overflow=hidden;rotatable=0;points=[[0,0.5],[1,0.5]];portConstraint=eastwest;fontSize=12;whiteSpace=wrap;html=1;" parent="aUoKUcC9t3b5W3S6GWxW-47" vertex="1">
          <mxGeometry y="268" width="320" height="26" as="geometry" />
        </mxCell>
        <mxCell id="aUoKUcC9t3b5W3S6GWxW-66" value="year of nobel win" style="text;strokeColor=none;fillColor=none;spacingLeft=4;spacingRight=4;overflow=hidden;rotatable=0;points=[[0,0.5],[1,0.5]];portConstraint=eastwest;fontSize=12;whiteSpace=wrap;html=1;" parent="aUoKUcC9t3b5W3S6GWxW-47" vertex="1">
          <mxGeometry y="294" width="320" height="26" as="geometry" />
        </mxCell>
        <mxCell id="aUoKUcC9t3b5W3S6GWxW-65" value="universities" style="text;strokeColor=none;fillColor=none;spacingLeft=4;spacingRight=4;overflow=hidden;rotatable=0;points=[[0,0.5],[1,0.5]];portConstraint=eastwest;fontSize=12;whiteSpace=wrap;html=1;" parent="aUoKUcC9t3b5W3S6GWxW-47" vertex="1">
          <mxGeometry y="320" width="320" height="26" as="geometry" />
        </mxCell>
        <mxCell id="aUoKUcC9t3b5W3S6GWxW-64" value="country represented for nobel prize" style="text;strokeColor=none;fillColor=none;spacingLeft=4;spacingRight=4;overflow=hidden;rotatable=0;points=[[0,0.5],[1,0.5]];portConstraint=eastwest;fontSize=12;whiteSpace=wrap;html=1;" parent="aUoKUcC9t3b5W3S6GWxW-47" vertex="1">
          <mxGeometry y="346" width="320" height="26" as="geometry" />
        </mxCell>
        <mxCell id="aUoKUcC9t3b5W3S6GWxW-54" value="depedia link" style="text;strokeColor=none;fillColor=none;spacingLeft=4;spacingRight=4;overflow=hidden;rotatable=0;points=[[0,0.5],[1,0.5]];portConstraint=eastwest;fontSize=12;whiteSpace=wrap;html=1;" parent="aUoKUcC9t3b5W3S6GWxW-47" vertex="1">
          <mxGeometry y="372" width="320" height="26" as="geometry" />
        </mxCell>
        <mxCell id="aUoKUcC9t3b5W3S6GWxW-55" value="profile" style="text;strokeColor=none;fillColor=none;spacingLeft=4;spacingRight=4;overflow=hidden;rotatable=0;points=[[0,0.5],[1,0.5]];portConstraint=eastwest;fontSize=12;whiteSpace=wrap;html=1;" parent="aUoKUcC9t3b5W3S6GWxW-47" vertex="1">
          <mxGeometry y="398" width="320" height="26" as="geometry" />
        </mxCell>
        <mxCell id="aUoKUcC9t3b5W3S6GWxW-68" value="Prizes table" style="swimlane;fontStyle=0;childLayout=stackLayout;horizontal=1;startSize=26;horizontalStack=0;resizeParent=1;resizeParentMax=0;resizeLast=0;collapsible=1;marginBottom=0;align=center;fontSize=14;" parent="1" vertex="1">
          <mxGeometry x="100" y="470" width="160" height="206" as="geometry" />
        </mxCell>
        <mxCell id="aUoKUcC9t3b5W3S6GWxW-69" value="id (year and catagory won)" style="text;strokeColor=none;fillColor=none;spacingLeft=4;spacingRight=4;overflow=hidden;rotatable=0;points=[[0,0.5],[1,0.5]];portConstraint=eastwest;fontSize=12;whiteSpace=wrap;html=1;" parent="aUoKUcC9t3b5W3S6GWxW-68" vertex="1">
          <mxGeometry y="26" width="160" height="30" as="geometry" />
        </mxCell>
        <mxCell id="aUoKUcC9t3b5W3S6GWxW-70" value="year" style="text;strokeColor=none;fillColor=none;spacingLeft=4;spacingRight=4;overflow=hidden;rotatable=0;points=[[0,0.5],[1,0.5]];portConstraint=eastwest;fontSize=12;whiteSpace=wrap;html=1;" parent="aUoKUcC9t3b5W3S6GWxW-68" vertex="1">
          <mxGeometry y="56" width="160" height="30" as="geometry" />
        </mxCell>
        <mxCell id="aUoKUcC9t3b5W3S6GWxW-71" value="award (catagory)" style="text;strokeColor=none;fillColor=none;spacingLeft=4;spacingRight=4;overflow=hidden;rotatable=0;points=[[0,0.5],[1,0.5]];portConstraint=eastwest;fontSize=12;whiteSpace=wrap;html=1;" parent="aUoKUcC9t3b5W3S6GWxW-68" vertex="1">
          <mxGeometry y="86" width="160" height="30" as="geometry" />
        </mxCell>
        <mxCell id="aUoKUcC9t3b5W3S6GWxW-72" value="winner name" style="text;strokeColor=none;fillColor=none;spacingLeft=4;spacingRight=4;overflow=hidden;rotatable=0;points=[[0,0.5],[1,0.5]];portConstraint=eastwest;fontSize=12;whiteSpace=wrap;html=1;" parent="aUoKUcC9t3b5W3S6GWxW-68" vertex="1">
          <mxGeometry y="116" width="160" height="30" as="geometry" />
        </mxCell>
        <mxCell id="aUoKUcC9t3b5W3S6GWxW-73" value="award motivation" style="text;strokeColor=none;fillColor=none;spacingLeft=4;spacingRight=4;overflow=hidden;rotatable=0;points=[[0,0.5],[1,0.5]];portConstraint=eastwest;fontSize=12;whiteSpace=wrap;html=1;" parent="aUoKUcC9t3b5W3S6GWxW-68" vertex="1">
          <mxGeometry y="146" width="160" height="30" as="geometry" />
        </mxCell>
        <mxCell id="aUoKUcC9t3b5W3S6GWxW-74" value="link on official website" style="text;strokeColor=none;fillColor=none;spacingLeft=4;spacingRight=4;overflow=hidden;rotatable=0;points=[[0,0.5],[1,0.5]];portConstraint=eastwest;fontSize=12;whiteSpace=wrap;html=1;" parent="aUoKUcC9t3b5W3S6GWxW-68" vertex="1">
          <mxGeometry y="176" width="160" height="30" as="geometry" />
        </mxCell>
        <mxCell id="aUoKUcC9t3b5W3S6GWxW-75" value="Award Categories" style="swimlane;fontStyle=0;childLayout=stackLayout;horizontal=1;startSize=26;horizontalStack=0;resizeParent=1;resizeParentMax=0;resizeLast=0;collapsible=1;marginBottom=0;align=center;fontSize=14;" parent="1" vertex="1">
          <mxGeometry x="330" y="730" width="360" height="262" as="geometry" />
        </mxCell>
        <mxCell id="aUoKUcC9t3b5W3S6GWxW-76" value="category (award)" style="text;strokeColor=none;fillColor=none;spacingLeft=4;spacingRight=4;overflow=hidden;rotatable=0;points=[[0,0.5],[1,0.5]];portConstraint=eastwest;fontSize=12;whiteSpace=wrap;html=1;" parent="aUoKUcC9t3b5W3S6GWxW-75" vertex="1">
          <mxGeometry y="26" width="360" height="30" as="geometry" />
        </mxCell>
        <mxCell id="aUoKUcC9t3b5W3S6GWxW-77" value="average age of laureates" style="text;strokeColor=none;fillColor=none;spacingLeft=4;spacingRight=4;overflow=hidden;rotatable=0;points=[[0,0.5],[1,0.5]];portConstraint=eastwest;fontSize=12;whiteSpace=wrap;html=1;" parent="aUoKUcC9t3b5W3S6GWxW-75" vertex="1">
          <mxGeometry y="56" width="360" height="30" as="geometry" />
        </mxCell>
        <mxCell id="aUoKUcC9t3b5W3S6GWxW-83" value="prizes won by women" style="text;strokeColor=none;fillColor=none;spacingLeft=4;spacingRight=4;overflow=hidden;rotatable=0;points=[[0,0.5],[1,0.5]];portConstraint=eastwest;fontSize=12;whiteSpace=wrap;html=1;" parent="aUoKUcC9t3b5W3S6GWxW-75" vertex="1">
          <mxGeometry y="86" width="360" height="26" as="geometry" />
        </mxCell>
        <mxCell id="aUoKUcC9t3b5W3S6GWxW-79" value="prizes won by men" style="text;strokeColor=none;fillColor=none;spacingLeft=4;spacingRight=4;overflow=hidden;rotatable=0;points=[[0,0.5],[1,0.5]];portConstraint=eastwest;fontSize=12;whiteSpace=wrap;html=1;" parent="aUoKUcC9t3b5W3S6GWxW-75" vertex="1">
          <mxGeometry y="112" width="360" height="30" as="geometry" />
        </mxCell>
        <mxCell id="aUoKUcC9t3b5W3S6GWxW-80" value="percentage of prizes won by women" style="text;strokeColor=none;fillColor=none;spacingLeft=4;spacingRight=4;overflow=hidden;rotatable=0;points=[[0,0.5],[1,0.5]];portConstraint=eastwest;fontSize=12;whiteSpace=wrap;html=1;" parent="aUoKUcC9t3b5W3S6GWxW-75" vertex="1">
          <mxGeometry y="142" width="360" height="30" as="geometry" />
        </mxCell>
        <mxCell id="aUoKUcC9t3b5W3S6GWxW-82" value="percentage of prizes won by men" style="text;strokeColor=none;fillColor=none;spacingLeft=4;spacingRight=4;overflow=hidden;rotatable=0;points=[[0,0.5],[1,0.5]];portConstraint=eastwest;fontSize=12;whiteSpace=wrap;html=1;" parent="aUoKUcC9t3b5W3S6GWxW-75" vertex="1">
          <mxGeometry y="172" width="360" height="30" as="geometry" />
        </mxCell>
        <mxCell id="aUoKUcC9t3b5W3S6GWxW-81" value="remove average age of female winners all countries" style="text;strokeColor=none;fillColor=none;spacingLeft=4;spacingRight=4;overflow=hidden;rotatable=0;points=[[0,0.5],[1,0.5]];portConstraint=eastwest;fontSize=12;whiteSpace=wrap;html=1;" parent="aUoKUcC9t3b5W3S6GWxW-75" vertex="1">
          <mxGeometry y="202" width="360" height="30" as="geometry" />
        </mxCell>
        <mxCell id="aUoKUcC9t3b5W3S6GWxW-78" value="remove average female winners all countries 2" style="text;strokeColor=none;fillColor=none;spacingLeft=4;spacingRight=4;overflow=hidden;rotatable=0;points=[[0,0.5],[1,0.5]];portConstraint=eastwest;fontSize=12;whiteSpace=wrap;html=1;" parent="aUoKUcC9t3b5W3S6GWxW-75" vertex="1">
          <mxGeometry y="232" width="360" height="30" as="geometry" />
        </mxCell>
        <mxCell id="9hrLNfGdoIEKvnvlhh2w-3" value="" style="endArrow=classic;html=1;rounded=0;exitX=1;exitY=0.5;exitDx=0;exitDy=0;entryX=1;entryY=0.5;entryDx=0;entryDy=0;" parent="1" source="aUoKUcC9t3b5W3S6GWxW-28" target="aUoKUcC9t3b5W3S6GWxW-70" edge="1">
          <mxGeometry width="50" height="50" relative="1" as="geometry">
            <mxPoint x="320" y="300" as="sourcePoint" />
            <mxPoint x="370" y="250" as="targetPoint" />
            <Array as="points">
              <mxPoint x="560" y="181" />
              <mxPoint x="560" y="540" />
            </Array>
          </mxGeometry>
        </mxCell>
        <mxCell id="9hrLNfGdoIEKvnvlhh2w-4" value="" style="endArrow=classic;html=1;rounded=0;exitX=0;exitY=0.5;exitDx=0;exitDy=0;entryX=1;entryY=0.5;entryDx=0;entryDy=0;" parent="1" source="aUoKUcC9t3b5W3S6GWxW-76" target="aUoKUcC9t3b5W3S6GWxW-71" edge="1">
          <mxGeometry width="50" height="50" relative="1" as="geometry">
            <mxPoint x="250" y="700" as="sourcePoint" />
            <mxPoint x="300" y="650" as="targetPoint" />
            <Array as="points">
              <mxPoint x="280" y="771" />
              <mxPoint x="280" y="570" />
            </Array>
          </mxGeometry>
        </mxCell>
        <mxCell id="9hrLNfGdoIEKvnvlhh2w-6" value="" style="endArrow=classic;html=1;rounded=0;exitX=0;exitY=0.5;exitDx=0;exitDy=0;entryX=0;entryY=0.5;entryDx=0;entryDy=0;" parent="1" source="aUoKUcC9t3b5W3S6GWxW-37" target="aUoKUcC9t3b5W3S6GWxW-64" edge="1">
          <mxGeometry width="50" height="50" relative="1" as="geometry">
            <mxPoint x="420" y="430" as="sourcePoint" />
            <mxPoint x="820" y="620" as="targetPoint" />
            <Array as="points">
              <mxPoint x="760" y="160" />
              <mxPoint x="760" y="919" />
            </Array>
          </mxGeometry>
        </mxCell>
        <mxCell id="9hrLNfGdoIEKvnvlhh2w-7" value="" style="endArrow=classic;html=1;rounded=0;exitX=1;exitY=0.5;exitDx=0;exitDy=0;entryX=0;entryY=0.5;entryDx=0;entryDy=0;" parent="1" source="aUoKUcC9t3b5W3S6GWxW-69" target="aUoKUcC9t3b5W3S6GWxW-49" edge="1">
          <mxGeometry width="50" height="50" relative="1" as="geometry">
            <mxPoint x="550" y="680" as="sourcePoint" />
            <mxPoint x="600" y="630" as="targetPoint" />
            <Array as="points">
              <mxPoint x="680" y="511" />
              <mxPoint x="680" y="627" />
            </Array>
          </mxGeometry>
        </mxCell>
        <mxCell id="9hrLNfGdoIEKvnvlhh2w-8" value="" style="endArrow=classic;html=1;rounded=0;exitX=1;exitY=0.5;exitDx=0;exitDy=0;entryX=0;entryY=0.5;entryDx=0;entryDy=0;" parent="1" source="aUoKUcC9t3b5W3S6GWxW-72" target="aUoKUcC9t3b5W3S6GWxW-48" edge="1">
          <mxGeometry width="50" height="50" relative="1" as="geometry">
            <mxPoint x="550" y="650" as="sourcePoint" />
            <mxPoint x="600" y="600" as="targetPoint" />
          </mxGeometry>
        </mxCell>
        <mxCell id="aUoKUcC9t3b5W3S6GWxW-53" value="image" style="text;strokeColor=none;fillColor=none;spacingLeft=4;spacingRight=4;overflow=hidden;rotatable=0;points=[[0,0.5],[1,0.5]];portConstraint=eastwest;fontSize=12;whiteSpace=wrap;html=1;" parent="1" vertex="1">
          <mxGeometry x="690" y="1030" width="320" height="26" as="geometry" />
        </mxCell>
      </root>
    </mxGraphModel>
  </diagram>
</mxfile>
